# xmcd CD database file
#
# Track frame offsets:
#	150
#	16734
#	29695
#	44308
#	58198
#	70505
#	89671
#	104259
#	123382
#	136810
#	152381
#	164094
#	179918
#	196541
#	214418
#	228234
#	239648
#	250302
#	267092
#	280912
#	295970
#	309954
#	322700
#
# Disc length: 4447 seconds
#
# Revision: 0
# Processed by: cddbd v1.5.1PL2 Copyright (c) Steve Scherf et al.
# Submitted via: CDex 1.50
#
DISCID=4b115d17
DTITLE=30 let ceske country - CD2
DYEAR=1900
DGENRE=Country
TTITLE0=H. Vycital - Cadillac
TTITLE1=H. Vycital - Pivni dzip
TTITLE2=Hoboes - Rezavy sporny
TTITLE3=K. Zich - Jak jdem tim zdejsim svetem
TTITLE4=K. Zich - V zadech tahnu stin
TTITLE5=M. Hoffmann - Ten sen jsem mival
TTITLE6=M. Tucny - Posledni kovboj
TTITLE7=M. Tucny - Vsichni jsou uz v Mexiku
TTITLE8=M. Tucny and Fesaci - Sundej z hodin zavazi
TTITLE9=M. Tucny, Z. Rytir - Chtel bych byt medvidkem
TTITLE10=N. Urbankova, K. Cernoch - Slecna sen
TTITLE11=P. Bobek - Pojd dal a zpivej
TTITLE12=P. Spaleny - Hrac
TTITLE13=P. Spaleny - Kdyz ji potkas
TTITLE14=Plavci - Inzenyrska
TTITLE15=Poutnici - Boues o touze latat
TTITLE16=Poutnici - Panenka
TTITLE17=T. Linka and Fesaci - Pani ma se ma
TTITLE18=V. Martinova - Maly dum nad skalou
TTITLE19=V. Tucny - Usta do podkovy
TTITLE20=W. Danek - Na ceste
TTITLE21=W. Matuska - Jen se priznej, ze ti schazim
TTITLE22=W. Matuska and O. Blechova and KTO - Kvete mak a slunce pali
EXTD=
EXTT0=
EXTT1=
EXTT2=
EXTT3=
EXTT4=
EXTT5=
EXTT6=
EXTT7=
EXTT8=
EXTT9=
EXTT10=
EXTT11=
EXTT12=
EXTT13=
EXTT14=
EXTT15=
EXTT16=
EXTT17=
EXTT18=
EXTT19=
EXTT20=
EXTT21=
EXTT22=
PLAYORDER=
